# xmcd
#
# Track frame offsets: 
#        150
#        17712
#        35395
#        60772
#        122042
#        146077
#        171822
#        198702
#        236420
#
# Disc length: 3339 seconds
#
# Revision: 16
# Processed by: cddbd v1.5.2PL0 Copyright (c) Steve Scherf et al.
# Submitted via: ExactAudioCopyFreeDBPlugin 1.0
#
DISCID=740d0909
DTITLE=Hendrix - Live At The Fillmore East [Disc 2]
DYEAR=1999
DGENRE=Classic Rock
TTITLE0=Auld Lang Syne (1969)
TTITLE1=Who Knows (1969)
TTITLE2=Them Changes (1969)
TTITLE3=Machine Gun (1969)
TTITLE4=Stepping Stone (1970)
TTITLE5=Stop (1970)
TTITLE6=Earth Blues (1970)
TTITLE7=Burning Desire (1970)
TTITLE8=Wild Thing (1970)
EXTD=YEAR: 1999
EXTT0=
EXTT1=
EXTT2=
EXTT3=
EXTT4=
EXTT5=
EXTT6=
EXTT7=
EXTT8=
PLAYORDER=
